<svg width="50" height="50" viewBox="0 0 50 50" fill="none" xmlns="http://www.w3.org/2000/svg">
<path d="M18.6941 33.0117L11.5192 25.8369C11.1326 25.4503 10.6083 25.2331 10.0615 25.2331C9.51477 25.2331 8.99041 25.4503 8.6038 25.8369C8.21719 26.2235 8 26.7479 8 27.2946C8 27.5653 8.05332 27.8334 8.15692 28.0835C8.26052 28.3336 8.41237 28.5609 8.6038 28.7523L17.2467 37.3952C18.0531 38.2016 19.3557 38.2016 20.1621 37.3952L42.0381 15.5192C42.4247 15.1326 42.6419 14.6083 42.6419 14.0615C42.6419 13.5148 42.4247 12.9904 42.0381 12.6038C41.6515 12.2172 41.1271 12 40.5804 12C40.0336 12 39.5093 12.2172 39.1227 12.6038L18.6941 33.0117Z" fill="#171717"/>
</svg>
