<svg width="50" height="50" viewBox="0 0 50 50" fill="none" xmlns="http://www.w3.org/2000/svg">
<rect width="50" height="50" rx="6" fill="#D9D9D9"/>
<path d="M16.0007 17.6404C15.9961 17.7483 16.0137 17.856 16.0523 17.9569C16.0909 18.0578 16.1497 18.1498 16.2252 18.2271C16.3006 18.3044 16.3911 18.3655 16.491 18.4066C16.5909 18.4476 16.6982 18.4678 16.8062 18.4659H19.5635C20.0248 18.4659 20.3924 18.0882 20.4526 17.6303C20.7534 15.4378 22.2574 13.8402 24.9379 13.8402C27.2307 13.8402 29.3296 14.9866 29.3296 17.744C29.3296 19.8663 28.0796 20.8422 26.1043 22.3262C23.855 23.9606 22.0736 25.869 22.2006 28.9672L22.2106 29.6925C22.2141 29.9118 22.3037 30.1209 22.46 30.2747C22.6163 30.4285 22.8269 30.5147 23.0462 30.5147H25.7567C25.9783 30.5147 26.1909 30.4267 26.3476 30.27C26.5043 30.1133 26.5923 29.9007 26.5923 29.6791V29.3282C26.5923 26.9285 27.5047 26.2299 29.968 24.3616C32.0034 22.8142 34.1257 21.0963 34.1257 17.49C34.1257 12.4398 29.861 10 25.1919 10C20.9573 10 16.3182 11.9719 16.0007 17.6404ZM21.2046 36.9017C21.2046 38.6832 22.625 40 24.5803 40C26.6157 40 28.0161 38.6832 28.0161 36.9017C28.0161 35.0568 26.6123 33.76 24.5769 33.76C22.625 33.76 21.2046 35.0568 21.2046 36.9017Z" fill="#373737"/>
</svg>
