<svg width="65" height="63" viewBox="0 0 65 63" fill="none" xmlns="http://www.w3.org/2000/svg">
<path d="M12.4 33.9L14.1 31.3C14.2 31.1 14.5 31 14.7 31C15 31 15.2 31.1 15.3 31.3L17.8 35.1L20.3 31.3C20.4 31.1 20.7 31 20.9 31C21.2 31 21.4 31.1 21.5 31.3L23.2 33.9V26.4H12.4V33.9Z" fill="black"/>
<path d="M30 26.4H24.8V36.4C24.8 36.8 24.5 37.2 24 37.2C23.8 37.2 23.5 37.1 23.4 36.9L20.9 33.1L18.4 36.9C18.1 37.3 17.4 37.3 17.1 36.9L14.6 33.1L12.1 36.9C11.7 37.5 10.7 37.2 10.7 36.5V26.5H5.69999C5.29999 26.5 4.89999 26.8 4.89999 27.3V50.7C4.89999 51.1 5.19999 51.5 5.69999 51.5H30C30.4 51.5 30.8 51.2 30.8 50.7V27.1C30.7 26.7 30.4 26.4 30 26.4Z" fill="black"/>
<path d="M40.7 33.8L42.4 31.1C42.5 30.9 42.8 30.8 43 30.8C43.3 30.8 43.5 30.9 43.6 31.1L46.1 35L48.6 31.1C48.7 30.9 49 30.8 49.2 30.8C49.5 30.8 49.7 30.9 49.8 31.1L51.5 33.8V26.4H40.7V33.8Z" fill="black"/>
<path d="M58.3 26.4H53.1V36.4C53.1 37.1 52.1 37.4 51.7 36.8L49.2 32.9L46.7 36.8C46.4 37.2 45.7 37.2 45.4 36.8L43 32.9L40.5 36.8C40.1 37.4 39.1 37.1 39.1 36.4V26.4H34C33.6 26.4 33.2 26.7 33.2 27.2V50.6C33.2 51 33.5 51.4 34 51.4H58.3C58.7 51.4 59.1 51.1 59.1 50.6V27.1C59 26.7 58.7 26.4 58.3 26.4Z" fill="black"/>
<path d="M26.5 7.8L28.2 5.5C28.3 5.3 28.6 5.2 28.8 5.2C29 5.2 29.3 5.3 29.4 5.5L31.9 8.8L34.4 5.5C34.5 5.3 34.8 5.2 35 5.2C35.2 5.2 35.5 5.3 35.6 5.5L37.4 7.8V0H26.5V7.8Z" fill="black"/>
<path d="M44.1 0H38.9V10C38.9 10.7 38 11 37.6 10.5L35.1 7.2L32.6 10.5C32.3 10.9 31.7 10.9 31.4 10.5L28.9 7.2L26.4 10.5C26 11.1 25 10.8 25 10V0H19.8C19.4 0 19 0.3 19 0.8V24.2C19 24.6 19.3 25 19.8 25H44.1C44.5 25 44.9 24.7 44.9 24.2V0.8C44.9 0.3 44.5 0 44.1 0Z" fill="black"/>
<path d="M63.3 54.3H0.8C0.3 54.3 0 53.9 0 53.5C0 53.1 0.3 52.7 0.8 52.7H63.3C63.7 52.7 64.1 53 64.1 53.5C64 53.9 63.7 54.3 63.3 54.3Z" fill="black"/>
<path d="M60.6 55.8V61.8C60.6 62.2 60.3 62.6 59.8 62.6H52.3C51.9 62.6 51.5 62.3 51.5 61.8V55.8H60.6Z" fill="black"/>
<path d="M12.4 55.8V61.9C12.4 62.3 12.1 62.7 11.6 62.7H4.09999C3.69999 62.7 3.29999 62.4 3.29999 61.9V55.8H12.4Z" fill="black"/>
<path d="M36.5 55.8V61.9C36.5 62.3 36.2 62.7 35.7 62.7H28.2C27.8 62.7 27.4 62.4 27.4 61.9V55.8H36.5Z" fill="black"/>
</svg>
